<svg xmlns="http://www.w3.org/2000/svg" viewBox="0 0 120 100" width="120" height="100">
  <defs>
    <radialGradient id="bgGrad" cx="50%" cy="50%" r="50%">
      <stop offset="0%" stop-color="#3b82f6" stop-opacity="0.3"/>
      <stop offset="100%" stop-color="#3b82f6" stop-opacity="0"/>
    </radialGradient>
  </defs>
  <!-- Gradient circle background -->
  <circle cx="60" cy="50" r="45" fill="url(#bgGrad)"/>
  <!-- 8-direction style with diagonal carets -->
  <!-- Cardinals -->
  <path d="M55 15 L60 5 L65 15" stroke="#60a5fa" stroke-width="3" stroke-linecap="round" stroke-linejoin="round" fill="none"/>
  <path d="M55 85 L60 95 L65 85" stroke="#60a5fa" stroke-width="3" stroke-linecap="round" stroke-linejoin="round" fill="none"/>
  <path d="M15 45 L5 50 L15 55" stroke="#60a5fa" stroke-width="3" stroke-linecap="round" stroke-linejoin="round" fill="none"/>
  <path d="M105 45 L115 50 L105 55" stroke="#60a5fa" stroke-width="3" stroke-linecap="round" stroke-linejoin="round" fill="none"/>
  <!-- Diagonals -->
  <path d="M95 12 L102 5 L109 12" stroke="#60a5fa" stroke-width="2.5" stroke-linecap="round" stroke-linejoin="round" fill="none" opacity="0.6" transform="rotate(45, 102, 8)"/>
  <path d="M95 88 L102 95 L109 88" stroke="#60a5fa" stroke-width="2.5" stroke-linecap="round" stroke-linejoin="round" fill="none" opacity="0.6" transform="rotate(-45, 102, 92)"/>
  <path d="M11 12 L18 5 L25 12" stroke="#60a5fa" stroke-width="2.5" stroke-linecap="round" stroke-linejoin="round" fill="none" opacity="0.6" transform="rotate(-45, 18, 8)"/>
  <path d="M11 88 L18 95 L25 88" stroke="#60a5fa" stroke-width="2.5" stroke-linecap="round" stroke-linejoin="round" fill="none" opacity="0.6" transform="rotate(45, 18, 92)"/>
  <g transform="translate(50, 37)">
    <path d="M0 0 L0 28 L7 21 L12 32 L16 30 L11 19 L20 19 Z" fill="#e5e7eb" stroke="#4b5563" stroke-width="1.5"/>
  </g>
</svg>
