<svg xmlns="http://www.w3.org/2000/svg" viewBox="0 0 464 95" width="464" height="95">

  <!-- Cell 1: linear -->
  <g transform="translate(0, 0)">
    <line x1="10" y1="58" x2="100" y2="58" stroke="#94a3b8" stroke-width="0.5"/>
    <line x1="10" y1="8" x2="100" y2="8" stroke="#94a3b8" stroke-width="0.5" stroke-dasharray="2,4"/>
    <polyline points="10,58 100,8" stroke="#3b82f6" stroke-width="2" fill="none" stroke-linecap="round"/>
    <text x="55" y="78" text-anchor="middle" fill="#64748b" font-size="11" font-family="ui-monospace, monospace">linear</text>
  </g>

  <!-- Cell 2: ease_in -->
  <g transform="translate(118, 0)">
    <line x1="10" y1="58" x2="100" y2="58" stroke="#94a3b8" stroke-width="0.5"/>
    <line x1="10" y1="8" x2="100" y2="8" stroke="#94a3b8" stroke-width="0.5" stroke-dasharray="2,4"/>
    <polyline points="10,58 19,57.4 28,55.6 37,52.6 46,48.4 55,43.4 64,37.4 73,30.7 82,23.5 91,15.8 100,8" stroke="#3b82f6" stroke-width="2" fill="none" stroke-linejoin="round" stroke-linecap="round"/>
    <text x="55" y="78" text-anchor="middle" fill="#64748b" font-size="11" font-family="ui-monospace, monospace">ease_in</text>
  </g>

  <!-- Cell 3: ease_out -->
  <g transform="translate(236, 0)">
    <line x1="10" y1="58" x2="100" y2="58" stroke="#94a3b8" stroke-width="0.5"/>
    <line x1="10" y1="8" x2="100" y2="8" stroke="#94a3b8" stroke-width="0.5" stroke-dasharray="2,4"/>
    <polyline points="10,58 19,50.2 28,42.6 37,35.3 46,28.6 55,22.7 64,17.6 73,13.5 82,10.5 91,8.6 100,8" stroke="#3b82f6" stroke-width="2" fill="none" stroke-linejoin="round" stroke-linecap="round"/>
    <text x="55" y="78" text-anchor="middle" fill="#64748b" font-size="11" font-family="ui-monospace, monospace">ease_out</text>
  </g>

  <!-- Cell 4: ease_in_out -->
  <g transform="translate(354, 0)">
    <line x1="10" y1="58" x2="100" y2="58" stroke="#94a3b8" stroke-width="0.5"/>
    <line x1="10" y1="8" x2="100" y2="8" stroke="#94a3b8" stroke-width="0.5" stroke-dasharray="2,4"/>
    <polyline points="10,58 19,56.8 28,53.2 37,47.7 46,40.7 55,33 64,25.3 73,18.3 82,12.8 91,9.2 100,8" stroke="#3b82f6" stroke-width="2" fill="none" stroke-linejoin="round" stroke-linecap="round"/>
    <text x="55" y="78" text-anchor="middle" fill="#64748b" font-size="11" font-family="ui-monospace, monospace">ease_in_out</text>
  </g>
</svg>
